<svg width="177" height="36" viewBox="0 0 177 36" fill="none" xmlns="http://www.w3.org/2000/svg">
<path d="M11.7539 18.6875H19.918C21.2591 18.6875 22.3919 18.2383 23.3164 17.3398C24.2539 16.4284 24.7227 15.1458 24.7227 13.4922C24.7227 12.2552 24.2344 11.1484 23.2578 10.1719C22.2812 9.18229 21.168 8.6875 19.918 8.6875H7.84766V34H6.44141V7.28125H19.918C21.5586 7.28125 23.0039 7.91276 24.2539 9.17578C25.5039 10.4388 26.1289 11.8776 26.1289 13.4922C26.1289 15.4844 25.5234 17.0859 24.3125 18.2969C23.1016 19.4948 21.6367 20.0938 19.918 20.0938H11.7539V18.6875ZM11.7539 21.5H19.918C21.2721 21.5 22.5221 21.1745 23.668 20.5234C24.8268 19.8594 25.7578 18.9089 26.4609 17.6719C27.1771 16.4349 27.5352 15.0417 27.5352 13.4922C27.5352 11.487 26.7669 9.71615 25.2305 8.17969C23.707 6.64323 21.9362 5.875 19.918 5.875H5.03516V34H3.62891V4.46875H19.918C21.4935 4.46875 22.9779 4.88542 24.3711 5.71875C25.7643 6.55208 26.8711 7.66536 27.6914 9.05859C28.5247 10.4518 28.9414 11.9297 28.9414 13.4922C28.9414 15.263 28.5247 16.8776 27.6914 18.3359C26.8581 19.7812 25.7513 20.9076 24.3711 21.7148C23.0039 22.5091 21.5195 22.9062 19.918 22.9062H11.7539V21.5ZM11.7539 24.3125H19.918C21.3112 24.3125 22.6458 24.0391 23.9219 23.4922C25.1979 22.9323 26.3047 22.1836 27.2422 21.2461C28.1927 20.2956 28.9479 19.1497 29.5078 17.8086C30.0677 16.4544 30.3477 15.0156 30.3477 13.4922C30.3477 11.6693 29.8724 9.95703 28.9219 8.35547C27.9714 6.74089 26.6888 5.45833 25.0742 4.50781C23.4727 3.54427 21.7539 3.0625 19.918 3.0625H2.22266V34H0.816406V1.65625H19.918C22.0013 1.65625 23.9544 2.20312 25.7773 3.29688C27.6003 4.3776 29.0521 5.82943 30.1328 7.65234C31.2135 9.47526 31.7539 11.4219 31.7539 13.4922C31.7539 15.3411 31.4349 17.0469 30.7969 18.6094C30.1589 20.1589 29.2995 21.4479 28.2188 22.4766C27.138 23.5052 25.8815 24.306 24.4492 24.8789C23.0169 25.4388 21.5065 25.7188 19.918 25.7188H11.7539V24.3125ZM10.6602 34H9.25391V10.0938H19.918C20.8424 10.0938 21.6367 10.4323 22.3008 11.1094C22.9779 11.7865 23.3164 12.5807 23.3164 13.4922C23.3164 16.0182 22.1836 17.2812 19.918 17.2812H11.7539V15.875H19.918C20.543 15.875 21.0312 15.6992 21.3828 15.3477C21.7344 14.9961 21.9102 14.3776 21.9102 13.4922C21.9102 12.9193 21.7148 12.444 21.3242 12.0664C20.9466 11.6888 20.4779 11.5 19.918 11.5H10.6602V34ZM59.2539 12.7109L58.1016 13.4727C57.3984 12.431 56.4805 11.6107 55.3477 11.0117C54.2279 10.3997 53.0104 10.0938 51.6953 10.0938C49.5599 10.0938 47.737 10.849 46.2266 12.3594C44.7161 13.8698 43.9609 15.6927 43.9609 17.8281C43.9609 19.9635 44.7161 21.7865 46.2266 23.2969C47.737 24.8073 49.5599 25.5625 51.6953 25.5625C53.0104 25.5625 54.2279 25.2565 55.3477 24.6445C56.4805 24.0326 57.3984 23.2057 58.1016 22.1641L59.2344 22.9844C58.401 24.2083 57.3203 25.1784 55.9922 25.8945C54.6641 26.6107 53.2318 26.9688 51.6953 26.9688C50.4583 26.9688 49.2734 26.7279 48.1406 26.2461C47.0208 25.7643 46.0508 25.1133 45.2305 24.293C44.4102 23.4727 43.7591 22.5026 43.2773 21.3828C42.7956 20.25 42.5547 19.0651 42.5547 17.8281C42.5547 16.5911 42.7956 15.4128 43.2773 14.293C43.7591 13.1602 44.4102 12.1836 45.2305 11.3633C46.0508 10.543 47.0208 9.89193 48.1406 9.41016C49.2734 8.92839 50.4583 8.6875 51.6953 8.6875C53.2448 8.6875 54.6836 9.05208 56.0117 9.78125C57.3398 10.4974 58.4206 11.474 59.2539 12.7109ZM61.5781 11.1094L60.4062 11.8711C59.4427 10.4648 58.1927 9.35156 56.6562 8.53125C55.1328 7.69792 53.4792 7.28125 51.6953 7.28125C49.7812 7.28125 48.0169 7.75651 46.4023 8.70703C44.7878 9.64453 43.5052 10.9206 42.5547 12.5352C41.6172 14.1497 41.1484 15.9141 41.1484 17.8281C41.1484 19.7422 41.6172 21.5065 42.5547 23.1211C43.5052 24.7357 44.7878 26.0182 46.4023 26.9688C48.0169 27.9062 49.7812 28.375 51.6953 28.375C53.4792 28.375 55.1393 27.9583 56.6758 27.125C58.2122 26.2917 59.4622 25.1654 60.4258 23.7461L61.5781 24.5469C60.4844 26.1615 59.0651 27.4375 57.3203 28.375C55.5885 29.3125 53.7135 29.7812 51.6953 29.7812C49.5339 29.7812 47.5352 29.2474 45.6992 28.1797C43.8633 27.112 42.4115 25.6602 41.3438 23.8242C40.276 21.9883 39.7422 19.9896 39.7422 17.8281C39.7422 15.6667 40.276 13.668 41.3438 11.832C42.4115 9.99609 43.8633 8.54427 45.6992 7.47656C47.5352 6.40885 49.5339 5.875 51.6953 5.875C53.7135 5.875 55.5885 6.34375 57.3203 7.28125C59.0651 8.21875 60.4844 9.49479 61.5781 11.1094ZM63.9219 9.54688L62.75 10.3086C61.526 8.51172 59.9375 7.09245 57.9844 6.05078C56.0443 4.99609 53.9479 4.46875 51.6953 4.46875C49.8854 4.46875 48.1536 4.82031 46.5 5.52344C44.8464 6.22656 43.4206 7.17708 42.2227 8.375C41.0378 9.5599 40.0938 10.9792 39.3906 12.6328C38.6875 14.2865 38.3359 16.0182 38.3359 17.8281C38.3359 19.638 38.6875 21.3698 39.3906 23.0234C40.0938 24.6771 41.0378 26.1029 42.2227 27.3008C43.4206 28.4857 44.8464 29.4297 46.5 30.1328C48.1536 30.8359 49.8854 31.1875 51.6953 31.1875C53.9609 31.1875 56.0638 30.6602 58.0039 29.6055C59.944 28.5508 61.526 27.125 62.75 25.3281L63.8828 26.168C62.5286 28.1471 60.7773 29.7161 58.6289 30.875C56.4935 32.0208 54.1823 32.5938 51.6953 32.5938C49.026 32.5938 46.5586 31.9362 44.293 30.6211C42.0273 29.293 40.2305 27.4961 38.9023 25.2305C37.5872 22.9648 36.9297 20.4974 36.9297 17.8281C36.9297 15.1589 37.5872 12.6914 38.9023 10.4258C40.2305 8.16016 42.0273 6.36979 44.293 5.05469C46.5586 3.72656 49.026 3.0625 51.6953 3.0625C54.1953 3.0625 56.5195 3.64844 58.668 4.82031C60.8164 5.97917 62.5677 7.55469 63.9219 9.54688ZM66.2266 7.94531L65.0547 8.70703C63.5703 6.53255 61.6497 4.8138 59.293 3.55078C56.9492 2.28776 54.4167 1.65625 51.6953 1.65625C49.5078 1.65625 47.4115 2.08594 45.4062 2.94531C43.4141 3.79167 41.6953 4.9375 40.25 6.38281C38.8047 7.82812 37.6523 9.55339 36.793 11.5586C35.9466 13.5508 35.5234 15.6406 35.5234 17.8281C35.5234 20.0156 35.9466 22.112 36.793 24.1172C37.6523 26.1094 38.8047 27.8281 40.25 29.2734C41.6953 30.7188 43.4141 31.8711 45.4062 32.7305C47.4115 33.5768 49.5078 34 51.6953 34C54.4167 34 56.9557 33.362 59.3125 32.0859C61.6693 30.8099 63.5898 29.0846 65.0742 26.9102L66.207 27.7695C64.5924 30.1133 62.5091 31.9753 59.957 33.3555C57.4049 34.7227 54.651 35.4062 51.6953 35.4062C49.3125 35.4062 47.0339 34.9375 44.8594 34C42.6979 33.0755 40.8294 31.832 39.2539 30.2695C37.6914 28.694 36.4414 26.8255 35.5039 24.6641C34.5794 22.4896 34.1172 20.2109 34.1172 17.8281C34.1172 15.4453 34.5794 13.1732 35.5039 11.0117C36.4414 8.83724 37.6914 6.96875 39.2539 5.40625C40.8294 3.83073 42.6979 2.58073 44.8594 1.65625C47.0339 0.71875 49.3125 0.25 51.6953 0.25C54.6641 0.25 57.4245 0.940104 59.9766 2.32031C62.5286 3.70052 64.612 5.57552 66.2266 7.94531ZM104.215 1.65625H105.621V34H104.215V1.65625ZM73.2773 1.65625H74.6836V34H73.2773V1.65625ZM101.402 1.65625H102.809V34H101.402V1.65625ZM98.5898 1.65625H99.9961V34H98.5898V1.65625ZM95.7773 1.65625H97.1836V34H95.7773V21.3242H83.1211V34H81.7148V1.65625H83.1211V14.293H95.7773V1.65625ZM78.9023 1.65625H80.3086V34H78.9023V1.65625ZM76.0898 1.65625H77.4961V34H76.0898V1.65625ZM95.7773 19.918V18.5117H83.1211V19.918H95.7773ZM95.7773 17.1055V15.6992H83.1211V17.1055H95.7773ZM132.105 19.7812V1.65625H133.512V19.7812C133.512 21.7604 132.73 23.4531 131.168 24.8594C129.605 26.2656 127.73 26.9688 125.543 26.9688C123.355 26.9688 121.48 26.2656 119.918 24.8594C118.355 23.4531 117.574 21.7604 117.574 19.7812V1.65625H118.98V19.7812C118.98 21.3698 119.618 22.7305 120.895 23.8633C122.184 24.9961 123.733 25.5625 125.543 25.5625C127.353 25.5625 128.896 24.9961 130.172 23.8633C131.461 22.7305 132.105 21.3698 132.105 19.7812ZM134.918 19.7812V1.65625H136.324V19.7812C136.324 21.1354 136.038 22.431 135.465 23.668C134.892 24.8919 134.124 25.9531 133.16 26.8516C132.197 27.75 131.051 28.4661 129.723 29C128.395 29.5208 127.001 29.7812 125.543 29.7812C124.085 29.7812 122.691 29.5208 121.363 29C120.035 28.4661 118.889 27.75 117.926 26.8516C116.962 25.9531 116.194 24.8919 115.621 23.668C115.048 22.431 114.762 21.1354 114.762 19.7812V1.65625H116.168V19.7812C116.168 21.3307 116.585 22.7695 117.418 24.0977C118.264 25.4128 119.404 26.4544 120.836 27.2227C122.281 27.9909 123.85 28.375 125.543 28.375C127.236 28.375 128.798 27.9909 130.23 27.2227C131.676 26.4544 132.815 25.4128 133.648 24.0977C134.495 22.7695 134.918 21.3307 134.918 19.7812ZM137.73 19.7812V1.65625H139.137V19.7812C139.137 21.513 138.772 23.1732 138.043 24.7617C137.327 26.3372 136.363 27.6979 135.152 28.8438C133.941 29.9896 132.496 30.901 130.816 31.5781C129.137 32.2552 127.379 32.5938 125.543 32.5938C123.707 32.5938 121.949 32.2552 120.27 31.5781C118.59 30.901 117.145 29.9896 115.934 28.8438C114.723 27.6979 113.753 26.3372 113.023 24.7617C112.307 23.1732 111.949 21.513 111.949 19.7812V1.65625H113.355V19.7812C113.355 21.8385 113.902 23.7461 114.996 25.5039C116.09 27.2487 117.568 28.6354 119.43 29.6641C121.305 30.6797 123.342 31.1875 125.543 31.1875C127.743 31.1875 129.775 30.6797 131.637 29.6641C133.512 28.6354 134.996 27.2487 136.09 25.5039C137.184 23.7461 137.73 21.8385 137.73 19.7812ZM140.543 19.7812V1.65625H141.949V19.7812C141.949 22.5938 141.214 25.2044 139.742 27.6133C138.271 30.0091 136.272 31.9102 133.746 33.3164C131.233 34.7096 128.499 35.4062 125.543 35.4062C122.587 35.4062 119.846 34.7096 117.32 33.3164C114.807 31.9102 112.815 30.0091 111.344 27.6133C109.872 25.2044 109.137 22.5938 109.137 19.7812V1.65625H110.543V19.7812C110.543 21.6953 110.94 23.5312 111.734 25.2891C112.529 27.0469 113.596 28.5638 114.938 29.8398C116.279 31.1029 117.874 32.112 119.723 32.8672C121.585 33.6224 123.525 34 125.543 34C127.561 34 129.495 33.6224 131.344 32.8672C133.206 32.112 134.807 31.1029 136.148 29.8398C137.49 28.5638 138.557 27.0469 139.352 25.2891C140.146 23.5312 140.543 21.6953 140.543 19.7812ZM167.027 22.7305C167.027 22.2227 166.871 21.8841 166.559 21.7148C166.259 21.5456 165.816 21.4609 165.23 21.4609H156.168V20.0547H165.23C167.366 20.0547 168.434 20.9466 168.434 22.7305C168.434 23.7331 168.141 24.4557 167.555 24.8984C166.969 25.3411 166.194 25.5625 165.23 25.5625H156.168V24.1562H165.23C166.428 24.1562 167.027 23.681 167.027 22.7305ZM155.387 34H153.98V10.0938H165.23C166.116 10.0938 166.871 10.3672 167.496 10.9141C168.121 11.4479 168.434 12.1185 168.434 12.9258C168.434 13.9935 168.141 14.7682 167.555 15.25C166.969 15.7188 166.194 15.9531 165.23 15.9531H156.168V14.5469H165.23C166.428 14.5469 167.027 14.0065 167.027 12.9258C167.027 12.4831 166.858 12.138 166.52 11.8906C166.181 11.6302 165.751 11.5 165.23 11.5H155.387V34ZM156.168 17.3594H165.23C166.52 17.3594 167.607 16.9753 168.492 16.207C169.391 15.4258 169.84 14.332 169.84 12.9258C169.84 11.793 169.371 10.8034 168.434 9.95703C167.509 9.11068 166.441 8.6875 165.23 8.6875H152.574V34H151.168V7.28125H165.23C166.832 7.28125 168.232 7.84766 169.43 8.98047C170.641 10.1003 171.246 11.4154 171.246 12.9258C171.246 14.1107 170.966 15.1458 170.406 16.0312C169.859 16.9167 169.117 17.6003 168.18 18.082C170.224 18.8112 171.246 20.2956 171.246 22.5352C171.246 24.306 170.66 25.7253 169.488 26.793C168.316 27.8477 166.897 28.375 165.23 28.375H156.168V26.9688H165.23C166.52 26.9688 167.607 26.5846 168.492 25.8164C169.391 25.0352 169.84 23.9414 169.84 22.5352C169.84 21.5846 169.501 20.7448 168.824 20.0156C168.147 19.2865 167.151 18.8633 165.836 18.7461C165.706 18.7591 165.504 18.7656 165.23 18.7656H156.168V17.3594ZM174.059 12.9258C174.059 14.7487 173.414 16.3958 172.125 17.8672C173.414 19.2995 174.059 20.8555 174.059 22.5352C174.059 24.1628 173.648 25.6471 172.828 26.9883C172.021 28.3164 170.94 29.3516 169.586 30.0938C168.245 30.8229 166.793 31.1875 165.23 31.1875H156.168V29.7812H165.23C167.262 29.7812 169.007 29.1042 170.465 27.75C171.923 26.3828 172.652 24.6445 172.652 22.5352C172.652 21.7799 172.457 20.9466 172.066 20.0352C171.689 19.1107 171.161 18.4076 170.484 17.9258C171.93 16.5716 172.652 14.9049 172.652 12.9258C172.652 11.0247 171.91 9.3776 170.426 7.98438C168.941 6.57812 167.21 5.875 165.23 5.875H149.762V34H148.355V4.46875H165.23C166.78 4.46875 168.232 4.85286 169.586 5.62109C170.953 6.3763 172.04 7.41146 172.848 8.72656C173.655 10.0286 174.059 11.4284 174.059 12.9258ZM173.727 17.9453C174.885 16.3958 175.465 14.7227 175.465 12.9258C175.465 11.168 174.996 9.53385 174.059 8.02344C173.134 6.5 171.884 5.29557 170.309 4.41016C168.733 3.51172 167.04 3.0625 165.23 3.0625H146.949V34H145.543V1.65625H165.23C167.288 1.65625 169.208 2.16406 170.992 3.17969C172.789 4.19531 174.215 5.57552 175.27 7.32031C176.337 9.05208 176.871 10.9206 176.871 12.9258C176.871 14.8398 176.331 16.5195 175.25 17.9648C176.331 19.4622 176.871 20.9857 176.871 22.5352C176.871 24.2799 176.559 25.8815 175.934 27.3398C175.309 28.7852 174.462 29.9896 173.395 30.9531C172.34 31.9167 171.109 32.6654 169.703 33.1992C168.297 33.7331 166.806 34 165.23 34H156.168V32.5938H165.23C166.598 32.5938 167.906 32.3398 169.156 31.832C170.406 31.3112 171.493 30.6081 172.418 29.7227C173.342 28.8372 174.078 27.7695 174.625 26.5195C175.185 25.2695 175.465 23.9414 175.465 22.5352C175.465 21.9102 175.315 21.1615 175.016 20.2891C174.729 19.4036 174.299 18.6224 173.727 17.9453Z" fill="white"/>
</svg>
